<?xml version="1.0" standalone="no"?>
<!DOCTYPE svg PUBLIC "-//W3C//DTD SVG 20010904//EN"
 "http://www.w3.org/TR/2001/REC-SVG-20010904/DTD/svg10.dtd">
<svg version="1.0" xmlns="http://www.w3.org/2000/svg"
 width="260.000000pt" height="260.000000pt" viewBox="0 0 260.000000 260.000000"
 preserveAspectRatio="xMidYMid meet">
<metadata>
Created by potrace 1.14, written by Peter Selinger 2001-2017
</metadata>
<g transform="translate(0.000000,260.000000) scale(0.100000,-0.100000)"
fill="#000000" stroke="none">
<path d="M428 2164 c-52 -27 -74 -109 -44 -162 19 -36 66 -62 111 -62 45 0 92
26 111 62 17 30 17 86 0 116 -31 56 -118 79 -178 46z"/>
<path d="M909 2154 c-21 -22 -24 -35 -24 -94 0 -59 3 -72 24 -94 l24 -26 577
0 577 0 24 26 c21 22 24 35 24 94 0 59 -3 72 -24 94 l-24 26 -577 0 -577 0
-24 -26z"/>
<path d="M909 1694 c-21 -22 -24 -35 -24 -94 0 -59 3 -72 24 -94 l24 -26 577
0 577 0 24 26 c21 22 24 35 24 94 0 59 -3 72 -24 94 l-24 26 -577 0 -577 0
-24 -26z"/>
<path d="M428 1674 c-52 -27 -74 -109 -44 -162 19 -36 66 -62 111 -62 45 0 92
26 111 62 17 30 17 86 0 116 -31 56 -118 79 -178 46z"/>
<path d="M428 1184 c-52 -27 -74 -109 -44 -162 19 -36 66 -62 111 -62 45 0 92
26 111 62 17 30 17 86 0 116 -31 56 -118 79 -178 46z"/>
<path d="M909 1154 c-21 -22 -24 -35 -24 -94 0 -59 3 -72 24 -94 l24 -26 577
0 577 0 24 26 c21 22 24 35 24 94 0 59 -3 72 -24 94 l-24 26 -577 0 -577 0
-24 -26z"/>
<path d="M428 654 c-52 -27 -74 -109 -44 -162 44 -81 178 -81 222 0 17 30 17
86 0 116 -31 56 -118 79 -178 46z"/>
<path d="M909 644 c-21 -22 -24 -35 -24 -94 0 -59 3 -72 24 -94 l24 -26 577 0
577 0 24 26 c21 22 24 35 24 94 0 59 -3 72 -24 94 l-24 26 -577 0 -577 0 -24
-26z"/>
</g>
</svg>
